<?xml version="1.0" encoding="UTF-8" standalone="no"?>
<!-- Created with Inkscape (http://www.inkscape.org/) -->

<svg
   width="60.719097mm"
   height="67.703629mm"
   viewBox="0 0 60.719097 67.703629"
   version="1.1"
   id="svg1"
   xml:space="preserve"
   inkscape:export-filename="ypm-logo.svg"
   inkscape:export-xdpi="96"
   inkscape:export-ydpi="96"
   xmlns:inkscape="http://www.inkscape.org/namespaces/inkscape"
   xmlns:sodipodi="http://sodipodi.sourceforge.net/DTD/sodipodi-0.dtd"
   xmlns="http://www.w3.org/2000/svg"
   xmlns:svg="http://www.w3.org/2000/svg"><sodipodi:namedview
     id="namedview1"
     pagecolor="#ffffff"
     bordercolor="#999999"
     borderopacity="1"
     inkscape:showpageshadow="2"
     inkscape:pageopacity="0"
     inkscape:pagecheckerboard="0"
     inkscape:deskcolor="#d1d1d1"
     inkscape:document-units="mm" /><defs
     id="defs1" /><g
     inkscape:label="Layer 1"
     inkscape:groupmode="layer"
     id="layer1"
     transform="translate(-74.773775,-113.96147)"><path
       style="fill: currentColor"
       d="m 104.61667,181.41538 c -3.18592,-1.78523 -5.510191,-3.28113 -7.933337,-5.10588 -2.696772,-2.03082 -4.821029,-3.93925 -7.219798,-6.48627 -0.627002,-0.66575 -1.830818,-2.07692 -2.516574,-2.95005 -2.528567,-3.21945 -4.585357,-6.64917 -6.300191,-10.50566 -0.141278,-0.31772 -0.290269,-0.66017 -0.331092,-0.761 -0.04082,-0.10084 -0.190041,-0.46834 -0.331597,-0.81667 -1.859471,-4.5757 -3.177966,-9.69992 -4.01398,-15.6 -0.09092,-0.64167 -0.18196,-1.31667 -0.202308,-1.5 -0.02035,-0.18333 -0.05865,-0.49833 -0.08511,-0.7 -0.11996,-0.91422 -0.357839,-3.46835 -0.482751,-5.18333 -0.08239,-1.13116 -0.186982,-3.04978 -0.250769,-4.6 -0.110262,-2.67972 -0.19612,-7.79325 -0.170981,-10.18334 0.01636,-1.55575 0.07414,-2.97814 0.123069,-3.02972 0.01621,-0.0171 0.09631,0.0131 0.188471,0.0709 0.168109,0.10556 0.674085,0.39256 1.295197,0.73464 0.520903,0.2869 1.93709,0.98404 2.548414,1.2545 5.645016,2.4975 11.338927,3.31083 17.033334,2.43308 2.726101,-0.42021 5.474673,-1.2316 8.066663,-2.38132 0.33917,-0.15044 0.70667,-0.31082 0.81667,-0.3564 0.11,-0.0456 0.21425,-0.0962 0.23167,-0.11262 0.0403,-0.0378 0.16192,-0.0386 0.20333,-0.001 0.0174,0.0157 0.23417,0.11968 0.48167,0.23104 3.15296,1.41865 6.08852,2.27004 9.26666,2.68757 2.94348,0.3867 6.23489,0.28977 9.11667,-0.26848 3.72335,-0.72128 7.15806,-2.02948 10.74622,-4.09297 0.24542,-0.14114 0.45773,-0.24442 0.4718,-0.2295 0.0465,0.0493 0.10445,1.50448 0.12046,3.02711 0.0251,2.39009 -0.0607,7.50361 -0.17098,10.18333 -0.0638,1.55023 -0.16838,3.46885 -0.25077,4.6 -0.12491,1.71499 -0.36279,4.26912 -0.48275,5.18334 -0.0265,0.20166 -0.0648,0.51666 -0.0851,0.7 -0.0628,0.56547 -0.36051,2.62417 -0.50138,3.46666 -0.39124,2.33978 -0.78839,4.23288 -1.32869,6.33334 -2.8959,11.25816 -8.40772,20.05998 -17.03547,27.20396 -2.86767,2.3745 -6.33286,4.70815 -9.91666,6.67842 -0.275,0.15119 -0.5225,0.29329 -0.55,0.31577 -0.0412,0.0337 -0.1379,-0.008 -0.55,-0.23929 z m 0.69261,-2.18007 c 0.33212,-0.16741 1.51854,-0.83668 2.22405,-1.25461 2.74173,-1.62412 5.13957,-3.30335 7.35648,-5.15179 5.4839,-4.57245 9.58746,-9.91374 12.52722,-16.30573 0.69452,-1.5101 1.32636,-3.08917 1.89399,-4.73333 0.55831,-1.61716 1.06714,-3.33813 1.47832,-5 0.24349,-0.98411 0.28341,-1.15259 0.42654,-1.8 0.51002,-2.30698 1.05451,-5.53784 1.30047,-7.71667 0.009,-0.0825 0.0466,-0.3975 0.083,-0.7 0.2637,-2.19687 0.52893,-5.59231 0.66657,-8.53333 0.0522,-1.11627 0.12964,-3.59539 0.16546,-5.3 0.0428,-2.03843 0.0796,-5.6 0.0579,-5.6 -0.009,0 -0.19461,0.084 -0.4115,0.18658 -5.80381,2.74609 -12.02895,3.73775 -18.47768,2.94348 -2.95646,-0.36414 -6.34081,-1.27912 -9.11444,-2.46414 l -0.31372,-0.13404 -0.19425,0.0867 c -0.32823,0.14657 -1.3382,0.54743 -1.77759,0.70554 -2.88195,1.03705 -5.514136,1.64294 -8.433333,1.94124 -1.155751,0.1181 -1.52786,0.13857 -2.866667,0.15767 -1.704077,0.0243 -2.78144,-0.0302 -4.45,-0.22534 -3.447509,-0.4031 -7.00276,-1.43214 -10.229611,-2.96087 -0.236286,-0.11194 -0.436464,-0.20353 -0.444841,-0.20353 -0.0202,0 0.01873,3.6464 0.05979,5.6 0.06802,3.23647 0.208253,6.6649 0.348369,8.51667 0.177794,2.34974 0.334732,4.06319 0.500702,5.46667 0.835544,7.06554 2.221187,12.7516 4.398626,18.05 0.5554,1.35146 1.471969,3.28327 2.150886,4.53333 2.96942,5.46744 6.883874,10.12407 11.866083,14.11588 0.687855,0.55111 1.63927,1.27632 2.166667,1.65151 1.784589,1.26956 3.250319,2.2132 5.033329,3.24045 0.80203,0.46208 1.74365,0.98242 1.79262,0.99061 0.005,8.5e-4 0.1026,-0.0455 0.21666,-0.10299 z M 106,159.35769 v -16.38451 h 11.53333 c 6.34334,0 11.53319,0.0112 11.53302,0.025 -6e-4,0.0469 -0.1622,0.89061 -0.26657,1.39167 -1.3875,6.66134 -3.54423,12.08778 -6.71687,16.9 -3.37295,5.11604 -7.93823,9.47159 -13.64958,13.02249 -0.74662,0.4642 -1.99378,1.19957 -2.35833,1.39056 L 106,175.7422 Z m 5.53333,-0.41615 v -0.53165 l -0.26992,-0.14043 c -0.34202,-0.17794 -0.63022,-0.4584 -0.86375,-0.84056 -0.0971,-0.15898 -0.1837,-0.28905 -0.19234,-0.28905 -0.009,0 -0.008,0.16875 0.001,0.375 0.0268,0.58589 0.14171,0.8542 0.47957,1.11971 l 0.17167,0.1349 0.024,0.35186 0.024,0.35186 h 0.31269 0.31268 z m 1.5027,0.45664 c -0.0159,-0.0412 -0.0918,-0.24 -0.16849,-0.44166 -0.15558,-0.40894 -0.47168,-1.21632 -0.57011,-1.45618 -0.0945,-0.2302 -0.0798,-0.2501 0.0776,-0.10527 0.24352,0.22412 0.50049,0.40343 0.74215,0.51786 l 0.23285,0.11025 0.71667,-0.002 c 0.59688,-0.002 0.85595,-0.0194 1.55,-0.10668 0.45833,-0.0576 0.93356,-0.1147 1.05606,-0.12677 l 0.22274,-0.022 0.0355,0.14531 c 0.11936,0.48887 0.32526,0.97313 0.58972,1.38697 l 0.11184,0.175 h 0.41553 0.41554 l -0.19937,-0.39166 c -0.26207,-0.51486 -0.31153,-0.71991 -0.28743,-1.19167 0.029,-0.56721 0.13595,-0.98428 0.37818,-1.47452 0.0757,-0.15324 0.16668,-0.28008 0.24575,-0.34271 0.069,-0.0547 0.13157,-0.0994 0.13893,-0.0994 0.007,0 0.12497,0.14107 0.26135,0.31349 0.28891,0.36523 0.65984,0.65649 0.56166,0.44102 -0.0548,-0.12021 0.0208,-0.44216 0.11894,-0.50643 0.0635,-0.0416 0.10135,-0.0435 0.22263,-0.011 0.1206,0.0323 0.17817,0.0296 0.3293,-0.0149 0.10073,-0.0297 0.22397,-0.0881 0.27386,-0.12974 0.0877,-0.0732 0.0925,-0.095 0.14526,-0.65905 0.037,-0.39554 0.0499,-0.78186 0.0401,-1.2 -0.0166,-0.70817 -0.0391,-0.78712 -0.28404,-0.9965 -0.16749,-0.14316 -0.16597,-0.16365 0.0297,-0.40277 0.1453,-0.17752 0.11605,-0.33026 -0.0761,-0.39723 -0.13713,-0.0478 -0.74768,-0.0473 -1.3814,0.001 -0.58433,0.0446 -0.7207,0.0275 -0.85598,-0.10781 -0.0855,-0.0855 -0.0962,-0.11664 -0.0824,-0.23921 0.009,-0.0775 0.0266,-0.1733 0.0397,-0.21286 0.0327,-0.0987 -0.0837,-0.21141 -0.21847,-0.21141 -0.18617,0 -0.61466,0.12909 -2.42469,0.73048 -0.98406,0.32696 -2.00228,0.66264 -2.26272,0.74597 -0.26043,0.0833 -0.78543,0.28969 -1.16666,0.45859 -0.38124,0.1689 -0.8761,0.3794 -1.0997,0.46777 -0.22361,0.0884 -0.46509,0.19055 -0.53664,0.22705 -0.10311,0.0526 -0.16908,0.0623 -0.31814,0.047 -0.16563,-0.0171 -0.20392,-0.009 -0.32104,0.0686 -0.19136,0.12664 -0.26535,0.29601 -0.29911,0.68471 -0.0278,0.32013 -0.0799,0.48247 -0.18182,0.56709 -0.0421,0.035 -0.0687,0.0298 -0.1522,-0.0297 L 109,155.53531 v 0.0729 c 0,0.0957 0.23664,0.33064 0.33775,0.33537 0.23452,0.011 0.35814,-0.0385 0.60156,-0.24076 0.0858,-0.0713 0.16079,-0.12956 0.16667,-0.12951 0.006,5e-5 0.0115,0.1163 0.0126,0.25834 0.003,0.40114 0.18212,1.07105 0.37689,1.40904 0.2363,0.41009 0.51366,0.66858 0.94099,0.87699 l 0.35311,0.17221 0.25944,0.59167 0.25943,0.59166 h 0.3783 0.3783 z m 5.60481,-5.48147 c -0.10198,-0.0976 -0.14119,-0.1676 -0.17003,-0.3035 -0.049,-0.2309 -0.0474,-0.29462 0.0126,-0.49665 0.0622,-0.20958 0.15649,-0.30984 0.12837,-0.13655 -0.0228,0.14019 0.0339,0.35751 0.12251,0.47019 0.0464,0.059 0.1059,0.0889 0.19069,0.096 0.1167,0.01 0.12477,0.0181 0.15203,0.15678 0.024,0.12203 0.018,0.16097 -0.0358,0.23333 -0.1036,0.13942 -0.24133,0.13267 -0.40044,-0.0196 z M 116.7,158.73554 v -0.73764 l -0.24167,0.0224 c -0.13291,0.0123 -0.29041,0.0309 -0.35,0.0413 L 116,158.0806 v 0.69629 0.69629 h 0.35 0.35 z m -12.93333,16.76456 c -7.158637,-4.09776 -12.484295,-9.09389 -16.28453,-15.27692 -0.880968,-1.43334 -1.955954,-3.47706 -2.629977,-5 -1.45124,-3.27904 -2.583747,-6.89325 -3.389384,-10.81666 -0.123228,-0.60012 -0.26204,-1.33615 -0.262462,-1.39167 -2.53e-4,-0.0333 2.301736,-0.0417 11.399683,-0.0417 H 104 v 16.31667 c 0,8.97417 -0.0113,16.31634 -0.025,16.31593 -0.0137,-4e-4 -0.1075,-0.048 -0.20833,-0.10568 z M 93.284167,160.13941 c 0.105015,-0.0552 0.286538,-0.17063 0.403384,-0.25643 0.181329,-0.13314 0.212449,-0.17103 0.212449,-0.2587 0,-0.0611 0.06188,-0.21047 0.152673,-0.36857 0.243595,-0.42419 0.374317,-0.69556 0.464579,-0.96445 0.0897,-0.26719 0.08728,-0.32353 -0.02478,-0.57717 -0.07296,-0.16513 -0.08781,-0.49172 -0.02748,-0.60444 0.0323,-0.0603 0.05959,-0.0722 0.129628,-0.0564 0.450352,0.10173 0.764773,0.0977 1.355383,-0.0175 0.414211,-0.0808 0.836832,-0.21639 1.408458,-0.45199 0.242985,-0.10015 0.467457,-0.17714 0.498827,-0.1711 0.07455,0.0144 0.190101,0.18846 0.274108,0.41299 0.09007,0.24074 0.149105,0.87706 0.123397,1.33012 l -0.02076,0.36592 -0.195807,0.28408 c -0.266095,0.38606 -0.313562,0.48536 -0.287883,0.60228 0.04552,0.20726 0.327367,0.3318 0.750904,0.3318 h 0.197958 l 0.198747,-0.2501 c 0.109311,-0.13756 0.246171,-0.34947 0.304132,-0.47092 0.09156,-0.19185 0.10247,-0.24278 0.08317,-0.38829 l -0.02222,-0.16748 0.286822,-0.43056 c 0.226492,-0.34001 0.331096,-0.54052 0.497314,-0.95328 0.45595,-1.13223 0.53509,-1.43842 0.53571,-2.0727 6.3e-4,-0.65994 -0.0314,-0.75543 -0.40363,-1.20291 -0.50467,-0.60671 -0.597019,-0.69041 -0.941883,-0.85365 -0.297728,-0.14092 -0.326654,-0.14791 -0.606503,-0.14658 -0.513673,0.002 -1.067214,0.10449 -1.764191,0.32526 -0.245023,0.0776 -0.354302,0.0916 -0.808197,0.1034 -0.514616,0.0134 -0.527873,0.012 -0.679028,-0.0725 -0.422262,-0.23601 -0.945836,-0.24664 -1.461774,-0.0297 -0.229226,0.0964 -0.300134,0.0929 -0.784335,-0.039 -0.174166,-0.0474 -0.496666,-0.13235 -0.716666,-0.18871 -0.366708,-0.0939 -1.007555,-0.32844 -1.10882,-0.40575 -0.07584,-0.0579 -0.484361,-0.0634 -0.82696,-0.0112 -0.382956,0.0584 -0.879219,0.20834 -1.254615,0.37916 -0.238246,0.10842 -0.267412,0.13315 -0.398477,0.33792 -0.07778,0.12152 -0.296443,0.37986 -0.48592,0.5741 -0.298511,0.30601 -0.337654,0.35885 -0.29319,0.39575 0.06896,0.0572 0.06466,0.0993 -0.0193,0.18863 l -0.07061,0.0752 0.07091,0.11473 c 0.108164,0.17501 0.22138,0.20627 0.736984,0.20344 0.46573,-0.003 0.704839,-0.0462 1.183333,-0.21602 0.230472,-0.0818 0.560246,-0.16571 0.578696,-0.14726 0.0069,0.007 -0.07171,0.0539 -0.174726,0.10444 -0.103017,0.0505 -0.187303,0.10084 -0.187303,0.11181 0,0.011 0.107386,0.0457 0.238637,0.0772 0.325161,0.078 0.643536,0.23603 0.808789,0.40134 0.07565,0.0757 0.212184,0.25479 0.303398,0.398 0.350354,0.55008 0.464459,0.71477 0.672538,0.97066 0.259166,0.31873 0.335971,0.46614 0.471202,0.90439 0.136653,0.44286 0.197482,0.71168 0.254301,1.12384 0.05802,0.42085 0.03301,0.58751 -0.105652,0.70419 -0.119241,0.10034 -0.443213,0.5604 -0.443213,0.6294 0,0.0727 0.272499,0.30984 0.402804,0.35055 0.123511,0.0386 0.225156,0.0633 0.285477,0.0694 0.02106,0.002 0.124204,-0.0413 0.229219,-0.0966 z m -2.529628,-6.54815 c 0.103443,-0.0725 0.217611,-0.36402 0.20561,-0.52508 -0.01349,-0.18107 -0.07417,-0.21695 -0.291591,-0.17241 -0.207076,0.0424 -0.223322,0.003 -0.02205,-0.0529 0.252787,-0.0708 0.386825,0.0167 0.386825,0.25247 0,0.24346 -0.164458,0.54655 -0.29656,0.54655 -0.03846,0 -0.03394,-0.0124 0.01777,-0.0486 z M 90.4,153.31039 c 0,-0.0352 0.255302,-0.27054 0.293429,-0.27054 0.03901,0 0.106571,0.0742 0.106571,0.11705 0,0.0892 -0.137373,0.18295 -0.267965,0.18295 -0.07262,0 -0.132035,-0.0133 -0.132035,-0.0295 z m 2.010032,5.93866 c 0.24848,-0.30925 0.303756,-0.45757 0.282752,-0.75867 -0.01499,-0.21486 -0.220097,-0.92485 -0.260048,-0.90016 -0.01321,0.008 -0.03389,0.15392 -0.04596,0.3239 -0.03678,0.51838 -0.05934,0.66019 -0.113616,0.71447 -0.02864,0.0286 -0.124203,0.17787 -0.212364,0.33162 l -0.160293,0.27956 0.05167,0.12914 c 0.04864,0.12157 0.173817,0.2225 0.217705,0.17555 0.01094,-0.0117 0.119003,-0.14464 0.240149,-0.29541 z m 5.071346,-0.0587 c 0.03141,-0.0822 0.155379,-0.29599 0.275495,-0.475 l 0.218394,-0.32548 -0.01992,-0.48333 c -0.01096,-0.26584 -0.03607,-0.57334 -0.05582,-0.68334 -0.04686,-0.26104 -0.13672,-0.51666 -0.181634,-0.51666 -0.01958,0 -0.08657,0.0273 -0.148874,0.0607 l -0.113273,0.0608 -0.0029,0.64759 -0.0029,0.64758 -0.241667,0.36012 c -0.195408,0.29118 -0.241666,0.38459 -0.241666,0.48797 0,0.15931 0.07662,0.25688 0.25,0.31837 0.192976,0.0684 0.201932,0.0651 0.264711,-0.0993 z M 80.85468,141.03152 c -0.04753,-0.26534 -0.328632,-2.34119 -0.402859,-2.975 -0.357157,-3.04971 -0.601004,-6.51808 -0.718292,-10.21667 -0.09192,-2.89845 -0.165696,-7.56667 -0.119592,-7.56667 0.01196,0 0.05496,0.0215 0.09557,0.0477 0.113968,0.0737 1.199587,0.56363 1.748485,0.78908 2.719678,1.11707 5.679159,1.847 8.558676,2.11092 1.786613,0.16375 3.717097,0.16359 5.533333,-4.5e-4 3.041535,-0.2747 6.223109,-1.06651 9.101449,-2.26508 l 0.51546,-0.21465 0.62488,0.25396 c 0.53996,0.21944 1.4461,0.56137 1.70821,0.64459 0.0458,0.0145 0.31683,0.10225 0.60222,0.19488 1.92963,0.62635 4.24211,1.11418 6.26089,1.32077 1.22598,0.12546 2.04365,0.15847 3.48689,0.14075 1.35477,-0.0166 1.66571,-0.0326 2.73333,-0.14046 3.18487,-0.32173 6.46404,-1.23104 9.47987,-2.62875 0.30059,-0.13931 0.56117,-0.2533 0.57906,-0.2533 0.0561,0 -0.006,4.26064 -0.1092,7.53334 -0.14522,4.58938 -0.46801,8.60659 -0.98214,12.22322 -0.083,0.58391 -0.15092,1.07256 -0.15092,1.08588 0,0.0133 -10.91833,0.0242 -24.26296,0.0242 H 80.874086 Z m 38.01199,-5.13823 c 0.1375,-0.17988 0.265,-0.35179 0.28333,-0.38202 0.0183,-0.0302 0.0878,-0.14492 0.15445,-0.25486 0.11362,-0.18753 0.3385,-0.64305 0.54299,-1.09989 0.0492,-0.11 0.16035,-0.41561 0.24692,-0.67912 l 0.1574,-0.47911 0.22121,-0.008 c 0.16981,-0.006 0.25622,-0.0282 0.37194,-0.096 0.22894,-0.13417 0.28842,-0.23879 0.28842,-0.50728 0,-0.22294 -0.002,-0.22719 -0.14615,-0.3656 -0.15938,-0.15272 -0.38141,-0.22942 -0.60765,-0.20993 l -0.12519,0.0108 -0.15371,-0.46636 c -0.29947,-0.90861 -0.70826,-1.75393 -1.08328,-2.2401 -0.0737,-0.0956 -0.19402,-0.25242 -0.26735,-0.34858 -0.0733,-0.0962 -0.19159,-0.23934 -0.2628,-0.31817 l -0.12946,-0.14332 -0.17316,0.14794 c -0.33495,0.28615 -0.57387,0.40211 -1.90125,0.92277 -0.33,0.12945 -0.6675,0.26405 -0.75,0.29913 -0.27543,0.11712 -0.54636,0.16715 -0.98254,0.18145 l -0.43255,0.0142 -0.15128,0.19466 c -0.0832,0.10707 -0.17884,0.25581 -0.21254,0.33054 -0.0698,0.15482 0.002,0.14908 -0.70796,0.0569 -0.49541,-0.0643 -0.68103,-0.0654 -0.79831,-0.005 -0.15605,0.0809 -0.39391,0.30559 -0.51759,0.48901 -0.11813,0.1752 -0.14333,0.18846 -0.40357,0.21227 l -0.15633,0.0143 -0.1538,-0.19804 c -0.31119,-0.40072 -0.56118,-0.36244 -0.73298,0.11222 l -0.0764,0.21113 -1.27874,0.0402 c -0.7033,0.0221 -2.44123,0.0784 -3.86206,0.12515 -2.8822,0.0947 -4.63029,0.15176 -7.700003,0.25117 -1.145834,0.0371 -2.502669,0.0823 -3.015191,0.10046 -0.512522,0.0181 -1.153772,0.033 -1.425,0.033 -0.457112,0 -0.493143,-0.004 -0.493143,-0.0615 0,-0.0776 -0.09023,-0.16028 -0.226958,-0.20794 -0.08815,-0.0307 -0.124208,-0.0264 -0.214502,0.0257 -0.0597,0.0344 -0.130364,0.11173 -0.157038,0.17176 -0.04185,0.0942 -0.06012,0.106 -0.133333,0.0862 -0.425582,-0.11514 -0.704707,-0.0545 -0.929887,0.20194 -0.09611,0.10947 -0.104948,0.13898 -0.104948,0.35055 0,0.20989 0.0093,0.24158 0.101465,0.34657 0.206177,0.23482 0.597685,0.32431 0.888057,0.20299 0.06639,-0.0277 0.123322,-0.0465 0.126509,-0.0417 0.0032,0.005 0.02545,0.0581 0.04948,0.11843 0.05639,0.14156 0.152527,0.20701 0.304081,0.20701 0.143889,0 0.297078,-0.10711 0.297078,-0.20772 0,-0.0695 0.0012,-0.0695 1.041667,-0.0488 0.893237,0.0178 16.171476,0.50694 16.591576,0.53117 l 0.14991,0.009 0.0758,0.21667 c 0.16116,0.46082 0.43691,0.49006 0.74709,0.0792 l 0.14078,-0.18646 0.14792,0.0203 c 0.0814,0.0112 0.17503,0.0203 0.20815,0.0203 0.0362,0 0.10974,0.0746 0.18412,0.18665 0.15936,0.24008 0.4731,0.50275 0.6379,0.53406 0.0752,0.0143 0.3579,-0.005 0.70845,-0.0491 0.32083,-0.0401 0.59388,-0.0726 0.60677,-0.0722 0.0129,3.5e-4 0.0521,0.0654 0.0871,0.14446 0.035,0.0791 0.12944,0.22904 0.20989,0.33321 l 0.14628,0.18939 0.28925,1.2e-4 c 0.60163,2.7e-4 0.84096,0.0646 2.02741,0.5447 1.26099,0.51029 1.4665,0.6123 1.75,0.86861 l 0.16667,0.15069 0.13333,-0.14169 c 0.0733,-0.0779 0.24584,-0.28885 0.38334,-0.46874 z m -2.07311,-2.36269 c -0.25135,-0.21032 -0.97469,-0.79368 -1.18715,-0.95742 -0.0833,-0.0642 -0.15697,-0.13376 -0.16378,-0.15465 -0.0118,-0.0362 0.0747,-0.11102 0.8407,-0.72683 0.18334,-0.14738 0.34084,-0.27559 0.35,-0.28491 0.0845,-0.0859 0.37021,-0.30027 0.40019,-0.30027 0.0353,0 0.31357,0.21709 1.18795,0.92684 0.37716,0.30615 0.42641,0.35598 0.39776,0.40235 -0.0109,0.0177 -0.24846,0.21604 -0.52787,0.44085 -0.27942,0.22481 -0.62368,0.50352 -0.76504,0.61935 -0.14136,0.11583 -0.27176,0.21061 -0.28977,0.21061 -0.018,0 -0.12736,-0.0792 -0.24299,-0.17592 z m 0.80342,-0.72602 0.50337,-0.40649 -0.18051,-0.13745 c -0.0993,-0.0756 -0.33171,-0.26121 -0.51651,-0.41246 -0.32676,-0.26742 -0.41009,-0.31162 -0.4539,-0.24075 -0.0179,0.029 -0.60319,0.50346 -0.88761,0.71954 l -0.0882,0.067 0.28465,0.23128 c 0.15656,0.1272 0.38974,0.31827 0.51818,0.42459 0.12844,0.10633 0.25233,0.1861 0.27533,0.17728 0.023,-0.009 0.26832,-0.19897 0.54518,-0.42253 z"
       id="path1"
       inkscape:export-filename=".\path1.svg"
       inkscape:export-xdpi="300"
       inkscape:export-ydpi="300" /></g></svg>
